<svg width="700" height="900" viewBox="0 0 700 900" fill="none" xmlns="http://www.w3.org/2000/svg">
<path d="M262.353 145.452V347.527" stroke="#45C7F4" stroke-width="11" stroke-linecap="round" stroke-linejoin="round"/>
<path d="M262.353 145.452L335.761 212.52V454.662" stroke="#45C7F4" stroke-width="11" stroke-linecap="round" stroke-linejoin="round"/>
<path d="M190.042 509.535C219.624 413.724 267.832 317.913 342.335 249.103C402.595 193.358 473.811 157.646 550.505 135" stroke="#45C7F4" stroke-width="12" stroke-linecap="round" stroke-linejoin="round"/>
<path d="M550.505 135C536.262 171.583 524.21 207.294 512.158 239.522L490.245 255.2L509.967 270.878C504.489 319.655 517.636 374.529 558.175 423.305" stroke="#45C7F4" stroke-width="11" stroke-linecap="round" stroke-linejoin="round"/>
<path d="M335.761 441.596C397.116 414.595 468.333 403.272 558.175 423.305" stroke="#45C7F4" stroke-width="11" stroke-linecap="round" stroke-linejoin="round"/>
<path d="M335.761 454.662H602L532.975 514.762" stroke="#45C7F4" stroke-width="11" stroke-linecap="round" stroke-linejoin="round"/>
<path d="M190.042 509.535L532.975 514.762" stroke="#45C7F4" stroke-width="11" stroke-linecap="round" stroke-linejoin="round"/>
<path d="M190.042 509.535L335.761 441.596" stroke="#45C7F4" stroke-width="11" stroke-linecap="round" stroke-linejoin="round"/>
<path d="M446.42 227.327L379.586 317.042" stroke="#45C7F4" stroke-width="2.6" stroke-linecap="round" stroke-linejoin="round"/>
<path d="M446.42 227.327V364.947" stroke="#45C7F4" stroke-width="2.6" stroke-linecap="round" stroke-linejoin="round"/>
<path d="M379.586 317.042L446.42 364.947" stroke="#45C7F4" stroke-width="2.6" stroke-linecap="round" stroke-linejoin="round"/>
<path d="M379.586 317.042L300.701 405.885" stroke="#45C7F4" stroke-width="2.6" stroke-linecap="round" stroke-linejoin="round"/>
<path d="M300.701 405.885L446.42 364.947" stroke="#45C7F4" stroke-width="2.6" stroke-linecap="round" stroke-linejoin="round"/>
<path d="M300.701 405.885L243.728 485.147" stroke="#45C7F4" stroke-width="2.6" stroke-linecap="round" stroke-linejoin="round"/>
<path d="M298.509 405.885L243.728 378.013" stroke="#45C7F4" stroke-width="2.6" stroke-linecap="round" stroke-linejoin="round"/>
<path d="M446.42 227.327L541.74 140.226" stroke="#45C7F4" stroke-width="2.6" stroke-linecap="round" stroke-linejoin="round"/>
<path d="M379.586 317.042L335.761 312.687" stroke="#45C7F4" stroke-width="2.6" stroke-linecap="round" stroke-linejoin="round"/>
<path d="M446.42 364.947L548.314 418.079" stroke="#45C7F4" stroke-width="2.6" stroke-linecap="round" stroke-linejoin="round"/>
<path d="M446.42 235.166C451.866 235.166 456.281 231.657 456.281 227.327C456.281 222.998 451.866 219.488 446.42 219.488C440.974 219.488 436.559 222.998 436.559 227.327C436.559 231.657 440.974 235.166 446.42 235.166Z" fill="#45C7F4"/>
<path d="M379.586 324.881C385.032 324.881 389.447 321.371 389.447 317.042C389.447 312.712 385.032 309.203 379.586 309.203C374.14 309.203 369.726 312.712 369.726 317.042C369.726 321.371 374.14 324.881 379.586 324.881Z" fill="#45C7F4"/>
<path d="M446.42 372.787C451.866 372.787 456.281 369.277 456.281 364.947C456.281 360.618 451.866 357.108 446.42 357.108C440.974 357.108 436.559 360.618 436.559 364.947C436.559 369.277 440.974 372.787 446.42 372.787Z" fill="#45C7F4"/>
<path d="M300.701 413.724C306.147 413.724 310.561 410.214 310.561 405.885C310.561 401.556 306.147 398.046 300.701 398.046C295.255 398.046 290.84 401.556 290.84 405.885C290.84 410.214 295.255 413.724 300.701 413.724Z" fill="#45C7F4"/>
<path d="M71.1818 639V545.909H88.0455V624.864H129.045V639H71.1818ZM226.023 571.5C225.598 567.53 223.811 564.439 220.659 562.227C217.538 560.015 213.477 558.909 208.477 558.909C204.962 558.909 201.947 559.439 199.432 560.5C196.917 561.561 194.992 563 193.659 564.818C192.326 566.636 191.644 568.712 191.614 571.045C191.614 572.985 192.053 574.667 192.932 576.091C193.841 577.515 195.068 578.727 196.614 579.727C198.159 580.697 199.871 581.515 201.75 582.182C203.629 582.848 205.523 583.409 207.432 583.864L216.159 586.045C219.674 586.864 223.053 587.97 226.295 589.364C229.568 590.758 232.492 592.515 235.068 594.636C237.674 596.758 239.735 599.318 241.25 602.318C242.765 605.318 243.523 608.833 243.523 612.864C243.523 618.318 242.129 623.121 239.341 627.273C236.553 631.394 232.523 634.621 227.25 636.955C222.008 639.258 215.659 640.409 208.205 640.409C200.962 640.409 194.674 639.288 189.341 637.045C184.038 634.803 179.886 631.53 176.886 627.227C173.917 622.924 172.311 617.682 172.068 611.5H188.659C188.902 614.742 189.902 617.439 191.659 619.591C193.417 621.742 195.705 623.348 198.523 624.409C201.371 625.47 204.553 626 208.068 626C211.735 626 214.947 625.455 217.705 624.364C220.492 623.242 222.674 621.697 224.25 619.727C225.826 617.727 226.629 615.394 226.659 612.727C226.629 610.303 225.917 608.303 224.523 606.727C223.129 605.121 221.174 603.788 218.659 602.727C216.174 601.636 213.265 600.667 209.932 599.818L199.341 597.091C191.674 595.121 185.614 592.136 181.159 588.136C176.735 584.106 174.523 578.758 174.523 572.091C174.523 566.606 176.008 561.803 178.977 557.682C181.977 553.561 186.053 550.364 191.205 548.091C196.356 545.788 202.189 544.636 208.705 544.636C215.311 544.636 221.098 545.788 226.068 548.091C231.068 550.364 234.992 553.53 237.841 557.591C240.689 561.621 242.159 566.258 242.25 571.5H226.023ZM258.557 639V545.909H275.42V585.318H318.557V545.909H335.466V639H318.557V599.455H275.42V639H258.557ZM365.761 639H347.761L380.534 545.909H401.352L434.17 639H416.17L391.307 565H390.58L365.761 639ZM366.352 602.5H415.443V616.045H366.352V602.5ZM446.432 639V545.909H481.341C488.492 545.909 494.492 547.152 499.341 549.636C504.22 552.121 507.902 555.606 510.386 560.091C512.902 564.545 514.159 569.742 514.159 575.682C514.159 581.652 512.886 586.833 510.341 591.227C507.826 595.591 504.114 598.97 499.205 601.364C494.295 603.727 488.265 604.909 481.114 604.909H456.25V590.909H478.841C483.023 590.909 486.447 590.333 489.114 589.182C491.78 588 493.75 586.288 495.023 584.045C496.326 581.773 496.977 578.985 496.977 575.682C496.977 572.379 496.326 569.561 495.023 567.227C493.72 564.864 491.735 563.076 489.068 561.864C486.402 560.621 482.962 560 478.75 560H463.295V639H446.432ZM494.523 596.818L517.568 639H498.75L476.114 596.818H494.523ZM529.682 639V545.909H546.545V588.682H547.682L584 545.909H604.591L568.591 587.682L604.909 639H584.636L556.864 599.091L546.545 611.273V639H529.682Z" fill="white"/>
<path d="M176.727 662.545V654.909H244.227V662.545H214.727V748H206.227V662.545H176.727ZM263.364 748V654.909H317.364V662.545H271.864V697.591H314.5V705.227H271.864V740.364H318.273V748H263.364ZM412.273 684H403.727C403.091 680.818 401.939 677.879 400.273 675.182C398.636 672.455 396.576 670.076 394.091 668.045C391.606 666.015 388.788 664.439 385.636 663.318C382.485 662.197 379.076 661.636 375.409 661.636C369.53 661.636 364.167 663.167 359.318 666.227C354.5 669.288 350.636 673.788 347.727 679.727C344.848 685.636 343.409 692.879 343.409 701.455C343.409 710.091 344.848 717.364 347.727 723.273C350.636 729.182 354.5 733.667 359.318 736.727C364.167 739.758 369.53 741.273 375.409 741.273C379.076 741.273 382.485 740.712 385.636 739.591C388.788 738.47 391.606 736.909 394.091 734.909C396.576 732.879 398.636 730.5 400.273 727.773C401.939 725.045 403.091 722.091 403.727 718.909H412.273C411.515 723.182 410.091 727.167 408 730.864C405.939 734.53 403.303 737.742 400.091 740.5C396.909 743.258 393.242 745.409 389.091 746.955C384.939 748.5 380.379 749.273 375.409 749.273C367.591 749.273 360.652 747.318 354.591 743.409C348.53 739.47 343.773 733.924 340.318 726.773C336.894 719.621 335.182 711.182 335.182 701.455C335.182 691.727 336.894 683.288 340.318 676.136C343.773 668.985 348.53 663.455 354.591 659.545C360.652 655.606 367.591 653.636 375.409 653.636C380.379 653.636 384.939 654.409 389.091 655.955C393.242 657.47 396.909 659.621 400.091 662.409C403.303 665.167 405.939 668.379 408 672.045C410.091 675.712 411.515 679.697 412.273 684ZM432.239 748V654.909H440.739V697.591H493.557V654.909H502.057V748H493.557V705.227H440.739V748H432.239Z" fill="white"/>
</svg>
